<svg width="14" height="14" viewBox="0 0 14 14" fill="none" xmlns="http://www.w3.org/2000/svg">
<path d="M2.1075 6.29297C1.71697 5.90245 1.08381 5.90245 0.693284 6.29297C0.30276 6.6835 0.30276 7.31666 0.693284 7.70719L2.1075 6.29297ZM4.86521 10.4649L4.15811 11.172C4.54863 11.5625 5.1818 11.5625 5.57232 11.172L4.86521 10.4649ZM12.9969 3.74739C13.3875 3.35687 13.3875 2.7237 12.9969 2.33318C12.6064 1.94265 11.9733 1.94265 11.5827 2.33318L12.9969 3.74739ZM0.693284 7.70719L4.15811 11.172L5.57232 9.7578L2.1075 6.29297L0.693284 7.70719ZM5.57232 11.172L12.9969 3.74739L11.5827 2.33318L4.15811 9.7578L5.57232 11.172Z" fill="#7668CA"/>
</svg>
