<svg width="17" height="17" viewBox="0 0 17 17" fill="none" xmlns="http://www.w3.org/2000/svg">
<path d="M9.80679 9.8125H2.5V8.30859H9.80679C10.4813 8.30859 11.0386 8.19466 11.4789 7.9668C11.9192 7.73438 12.2471 7.41992 12.4625 7.02344C12.678 6.6224 12.7857 6.16667 12.7857 5.65625C12.7857 5.14583 12.678 4.69238 12.4625 4.2959C12.2471 3.89486 11.9192 3.5804 11.4789 3.35254C11.0386 3.12012 10.4813 3.00391 9.80679 3.00391H6.51873V15.5H4.77635V1.5H9.80679C10.8747 1.5 11.7553 1.68913 12.4485 2.06738C13.1417 2.44564 13.6569 2.94922 13.9941 3.57813C14.3314 4.20703 14.5 4.89974 14.5 5.65625C14.5 6.41276 14.3314 7.10547 13.9941 7.73438C13.6569 8.36328 13.1417 8.86686 12.4485 9.24512C11.7553 9.62337 10.8747 9.8125 9.80679 9.8125ZM9.69438 11.125V12.6289H2.5V11.125H9.69438Z" fill="white"/>
</svg>
