<svg width="17" height="17" viewBox="0 0 17 17" fill="none" xmlns="http://www.w3.org/2000/svg">
<path d="M8.4853 0C4.01229 0 0.347989 3.44019 0 7.81173L4.56368 9.69381C4.95027 9.42978 5.41772 9.27597 5.9201 9.27597C5.96544 9.27597 6.01016 9.27718 6.05427 9.27961L8.08401 6.34506V6.30388C8.08401 4.53807 9.52436 3.10107 11.2949 3.10107C13.0655 3.10107 14.5059 4.53807 14.5059 6.30388C14.5059 8.0697 13.0655 9.5073 11.2949 9.5073C11.2704 9.5073 11.2465 9.50669 11.222 9.50609L8.32723 11.5656C8.32907 11.6037 8.33029 11.6419 8.33029 11.6794C8.33029 13.0056 7.24896 14.0841 5.9201 14.0841C4.7536 14.0841 3.77764 13.2533 3.55709 12.1536L0.29285 10.8074C1.30373 14.3724 4.58757 16.986 8.4853 16.986C13.188 16.986 17 13.183 17 8.49298C17 3.80231 13.188 0 8.4853 0ZM5.33587 12.8867L4.29007 12.4555C4.47509 12.8407 4.79612 13.1628 5.22192 13.3396C6.14213 13.7224 7.20325 13.287 7.58677 12.3683C7.77241 11.9238 7.77363 11.4333 7.58984 10.9876C7.40604 10.542 7.05866 10.1944 6.61326 10.0091C6.17031 9.82558 5.69612 9.83224 5.27951 9.98908L6.36024 10.4348C7.03906 10.717 7.36009 11.4945 7.07704 12.1715C6.79461 12.8485 6.0147 13.1689 5.33587 12.8867ZM13.4346 6.30394C13.4346 5.12734 12.4745 4.16934 11.2952 4.16934C10.1152 4.16934 9.15518 5.12734 9.15518 6.30394C9.15518 7.48055 10.1152 8.43794 11.2952 8.43794C12.4745 8.43794 13.4346 7.48055 13.4346 6.30394ZM9.69125 6.30031C9.69125 5.41498 10.4111 4.69739 11.2982 4.69739C12.186 4.69739 12.9059 5.41498 12.9059 6.30031C12.9059 7.18564 12.186 7.90323 11.2982 7.90323C10.4111 7.90323 9.69125 7.18564 9.69125 6.30031Z" fill="white"/>
</svg>
