<svg width="40" height="40" viewBox="0 0 40 40" fill="none" xmlns="http://www.w3.org/2000/svg">
<path d="M22.305 23.1818H7.53223V20.0568H22.305C23.6686 20.0568 24.7955 19.82 25.6856 19.3466C26.5758 18.8636 27.2387 18.2102 27.6743 17.3863C28.1099 16.553 28.3277 15.606 28.3277 14.5454C28.3277 13.4848 28.1099 12.5426 27.6743 11.7187C27.2387 10.8854 26.5758 10.232 25.6856 9.75849C24.7955 9.27553 23.6686 9.03406 22.305 9.03406H15.6572V35H12.1345V5.90906H22.305C24.464 5.90906 26.2443 6.30205 27.6459 7.08804C29.0474 7.87402 30.089 8.92042 30.7709 10.2272C31.4527 11.5341 31.7936 12.9735 31.7936 14.5454C31.7936 16.1174 31.4527 17.5568 30.7709 18.8636C30.089 20.1704 29.0474 21.2168 27.6459 22.0028C26.2443 22.7888 24.464 23.1818 22.305 23.1818ZM22.0777 25.9091V29.0341H7.53223V25.9091H22.0777Z" fill="white"/>
</svg>
