<svg width="52" height="52" viewBox="0 0 52 52" fill="none" xmlns="http://www.w3.org/2000/svg">
<path d="M0 36.1616V15.7787H7.11628C8.66301 15.7787 9.94654 16.0507 10.9669 16.5948C11.9937 17.1389 12.7606 17.8919 13.2675 18.854C13.7744 19.8095 14.0278 20.9142 14.0278 22.1682C14.0278 23.4156 13.7711 24.5137 13.2577 25.4626C12.7508 26.4047 11.9839 27.1379 10.9571 27.6621C9.93679 28.1863 8.65326 28.4483 7.10653 28.4483H1.71571V25.8009H6.83358C7.80841 25.8009 8.60127 25.6583 9.21217 25.373C9.82956 25.0877 10.2812 24.673 10.5672 24.1289C10.8531 23.5848 10.9961 22.9313 10.9961 22.1682C10.9961 21.3986 10.8499 20.7318 10.5574 20.1678C10.2715 19.6038 9.81981 19.1725 9.20242 18.8739C8.59152 18.5687 7.78891 18.4161 6.79458 18.4161H3.01223V36.1616H0ZM9.85556 26.9654L14.7882 36.1616H11.3568L6.52163 26.9654H9.85556Z" fill="white"/>
<path d="M30.5318 15.7787H33.5537V29.1848C33.5537 30.6114 33.2255 31.8754 32.5692 32.9768C31.9128 34.0716 30.9899 34.9341 29.8006 35.5645C28.6113 36.1881 27.2173 36.5 25.6186 36.5C24.0264 36.5 22.6356 36.1881 21.4463 35.5645C20.257 34.9341 19.3342 34.0716 18.6778 32.9768C18.0214 31.8754 17.6932 30.6114 17.6932 29.1848V15.7787H20.7054V28.936C20.7054 29.8583 20.9037 30.6777 21.3001 31.3943C21.703 32.1109 22.2717 32.6749 23.006 33.0863C23.7404 33.491 24.6113 33.6934 25.6186 33.6934C26.6324 33.6934 27.5065 33.491 28.2409 33.0863C28.9818 32.6749 29.5472 32.1109 29.9371 31.3943C30.3335 30.6777 30.5318 29.8583 30.5318 28.936V15.7787Z" fill="white"/>
<path d="M48.822 21.1332C48.7181 20.191 48.2891 19.4611 47.5353 18.9436C46.7814 18.4194 45.8326 18.1573 44.6888 18.1573C43.8699 18.1573 43.1615 18.29 42.5636 18.5555C41.9657 18.8142 41.5011 19.1725 41.1696 19.6303C40.8447 20.0815 40.6822 20.5957 40.6822 21.173C40.6822 21.6573 40.7927 22.0754 41.0136 22.427C41.2411 22.7787 41.5368 23.0739 41.9007 23.3128C42.2712 23.545 42.6676 23.7408 43.09 23.9C43.5125 24.0526 43.9186 24.1787 44.3086 24.2782L46.2582 24.7957C46.8951 24.955 47.5483 25.1706 48.2176 25.4427C48.887 25.7147 49.5077 26.073 50.0796 26.5175C50.6515 26.9621 51.1129 27.5128 51.4638 28.1697C51.8213 28.8265 52 29.6128 52 30.5284C52 31.6829 51.7075 32.7081 51.1226 33.6038C50.5442 34.4995 49.7026 35.2062 48.5978 35.7237C47.4995 36.2412 46.1705 36.5 44.6108 36.5C43.116 36.5 41.8227 36.2578 40.7309 35.7735C39.6391 35.2891 38.7845 34.6024 38.1671 33.7133C37.5497 32.8175 37.2085 31.7559 37.1436 30.5284H40.1655C40.224 31.2649 40.458 31.8787 40.8674 32.3697C41.2833 32.854 41.813 33.2156 42.4564 33.4545C43.1063 33.6867 43.8179 33.8028 44.5913 33.8028C45.4426 33.8028 46.1997 33.6668 46.8626 33.3948C47.532 33.1161 48.0584 32.7313 48.4419 32.2403C48.8253 31.7427 49.017 31.1621 49.017 30.4986C49.017 29.8948 48.848 29.4005 48.5101 29.0156C48.1787 28.6308 47.727 28.3123 47.1551 28.0602C46.5897 27.8081 45.9495 27.5858 45.2347 27.3934L42.8756 26.7365C41.2768 26.2919 40.0096 25.6384 39.0737 24.7758C38.1444 23.9133 37.6797 22.772 37.6797 21.3521C37.6797 20.1777 37.9917 19.1526 38.6155 18.2768C39.2394 17.4009 40.0843 16.7209 41.1501 16.2365C42.2159 15.7455 43.4182 15.5 44.757 15.5C46.1088 15.5 47.3013 15.7422 48.3346 16.2265C49.3744 16.7109 50.1933 17.3777 50.7912 18.227C51.3891 19.0697 51.7011 20.0384 51.727 21.1332H48.822Z" fill="white"/>
</svg>
