<svg width="40" height="40" viewBox="0 0 40 40" fill="none" xmlns="http://www.w3.org/2000/svg">
<path d="M19.9654 0C9.44068 0 0.818798 8.09456 0 18.3805L10.7381 22.809C11.6477 22.1877 12.7476 21.8258 13.9297 21.8258C14.0363 21.8258 14.1416 21.8287 14.2454 21.8344L19.0212 14.9296V14.8327C19.0212 10.6778 22.4103 7.29665 26.5763 7.29665C30.7424 7.29665 34.1315 10.6778 34.1315 14.8327C34.1315 18.9875 30.7424 22.3701 26.5763 22.3701C26.5187 22.3701 26.4624 22.3687 26.4048 22.3673L19.5935 27.2132C19.5978 27.3029 19.6007 27.3927 19.6007 27.481C19.6007 30.6015 17.0564 33.1391 13.9297 33.1391C11.185 33.1391 8.88857 31.1842 8.36961 28.5967L0.689059 25.4293C3.06761 33.8173 10.7943 39.967 19.9654 39.967C31.0307 39.967 40 31.0189 40 19.9835C40 8.94662 31.0307 0 19.9654 0ZM12.555 30.3216L10.0943 29.3071C10.5296 30.2133 11.285 30.9713 12.2869 31.3874C14.4521 32.2879 16.9488 31.2634 17.8512 29.1019C18.288 28.0561 18.2909 26.902 17.8584 25.8533C17.426 24.8046 16.6086 23.9867 15.5606 23.5507C14.5184 23.119 13.4026 23.1347 12.4224 23.5037L14.9653 24.5524C16.5625 25.2164 17.3179 27.0459 16.6519 28.6389C15.9873 30.2319 14.1522 30.9856 12.555 30.3216ZM31.6108 14.8328C31.6108 12.0643 29.3519 9.81022 26.5769 9.81022C23.8005 9.81022 21.5416 12.0643 21.5416 14.8328C21.5416 17.6013 23.8005 19.854 26.5769 19.854C29.3519 19.854 31.6108 17.6013 31.6108 14.8328ZM22.8029 14.8243C22.8029 12.7411 24.4968 11.0527 26.5841 11.0527C28.6729 11.0527 30.3667 12.7411 30.3667 14.8243C30.3667 16.9074 28.6729 18.5958 26.5841 18.5958C24.4968 18.5958 22.8029 16.9074 22.8029 14.8243Z" fill="white"/>
</svg>
