<?xml version="1.0" encoding="utf-8"?><svg viewBox="0 0 502.66 502.66" xmlns="http://www.w3.org/2000/svg" xmlns:xlink="http://www.w3.org/1999/xlink"><style>:root>svg{display:none}:root>svg:target{display:block}</style><svg viewBox="0 0 14 14" id="check" xmlns="http://www.w3.org/2000/svg"><path d="M2.107 6.293A1 1 0 00.694 7.707l1.414-1.414zm2.758 4.172l-.707.707a1 1 0 001.414 0l-.707-.707zm8.132-6.718a1 1 0 10-1.414-1.414l1.414 1.414zM.693 7.707l3.465 3.465 1.414-1.414-3.465-3.465L.694 7.707zm4.88 3.465l7.424-7.425-1.414-1.414-7.425 7.425 1.414 1.414z"/></svg><svg viewBox="0 0 502.664 502.664" id="icon" xmlns="http://www.w3.org/2000/svg"><path d="M153.821 358.226L0 274.337v-46.463l153.821-83.414v54.574L46.636 250.523l107.185 53.431v54.272zm26.273 29.358L282.103 115.08h32.227L212.084 387.584h-31.99zm168.749-29.358v-54.272l107.164-52.999-107.164-52.59v-53.927l153.821 83.522v46.183l-153.821 84.083z"/></svg><svg viewBox="0 0 17 17" id="ruble" xmlns="http://www.w3.org/2000/svg"><path d="M9.807 9.813H2.5V8.309h7.307c.674 0 1.232-.114 1.672-.342.44-.233.768-.547.984-.944.215-.4.323-.856.323-1.367 0-.51-.108-.964-.323-1.36a2.257 2.257 0 00-.984-.943c-.44-.233-.998-.35-1.672-.35H6.519V15.5H4.776v-14h5.03c1.069 0 1.95.19 2.643.567.693.379 1.208.882 1.545 1.511.337.629.506 1.322.506 2.078 0 .757-.169 1.45-.506 2.078-.337.63-.852 1.133-1.546 1.511-.693.378-1.573.568-2.641.568zm-.113 1.312v1.504H2.5v-1.504h7.194z"/></svg><svg viewBox="0 0 17 17" id="steam" xmlns="http://www.w3.org/2000/svg"><path d="M8.485 0C4.012 0 .348 3.44 0 7.812l4.564 1.882a2.397 2.397 0 011.49-.414l2.03-2.935v-.041a3.21 3.21 0 016.422 0 3.211 3.211 0 01-3.211 3.203h-.073l-2.895 2.059.003.113a2.41 2.41 0 01-4.773.475L.293 10.807a8.514 8.514 0 008.192 6.179c4.703 0 8.515-3.803 8.515-8.493S13.188 0 8.485 0zm-3.15 12.887l-1.045-.431c.185.385.506.707.932.884a1.812 1.812 0 002.365-.972 1.79 1.79 0 00.003-1.38 1.808 1.808 0 00-2.31-.999l1.08.446c.68.282 1 1.06.717 1.736a1.333 1.333 0 01-1.741.716zm8.1-6.583a2.14 2.14 0 00-4.28 0 2.14 2.14 0 004.28 0zM9.69 6.3c0-.885.72-1.603 1.607-1.603.888 0 1.608.718 1.608 1.603 0 .886-.72 1.603-1.608 1.603A1.605 1.605 0 019.691 6.3z"/></svg></svg>